# xmcd
#
# Track frame offsets: 
#        150
#        15545
#        32321
#        50320
#        74136
#        90047
#        115632
#        138495
#        160783
#        175615
#        196257
#        205301
#        214884
#
# Disc length: 2930 seconds
#
# Revision: 3
# Processed by: cddbd v1.5.2PL0 Copyright (c) Steve Scherf et al.
# Submitted via: ExactAudioCopyFreeDBPlugin 1.0
#
DISCID=a40b700d
DTITLE=Various Artist - AUDIOphile Pearls Volume 2
DYEAR=2012
DGENRE=Blues
TTITLE0=Sera Cahoone - Naked
TTITLE1=Caroline Keating - Ghost
TTITLE2=Lydie Auvrey - Camanu
TTITLE3=Joanne Shaw Taylor - Lose Myself To Loving You
TTITLE4=Chloe Carles - Tarot
TTITLE5=Amber Rubarth - Hold On
TTITLE6=Tango Crash - Accidente de Tango
TTITLE7=Inga Rumpf and NDR Radiophilharmonie - You go to My Head
TTITLE8=Amund Enger - Himmel pa jord
TTITLE9=Hildegard von Bingen - Rex noster
TTITLE10=Peter Cornelius - Christbaum
TTITLE11=Max Reger - Christkindleins Wiegenlied
TTITLE12=Max Reger - Uns ist geboren ein Kindlein
EXTD=
EXTT0=
EXTT1=
EXTT2=
EXTT3=
EXTT4=
EXTT5=
EXTT6=
EXTT7=
EXTT8=
EXTT9=
EXTT10=
EXTT11=
EXTT12=
PLAYORDER=
